<?xml version="1.0" encoding="UTF-8"?> <svg xmlns="http://www.w3.org/2000/svg" width="114" height="114" viewBox="0 0 114 114" fill="none"><circle cx="57" cy="57" r="57" fill="#B2FCE4"></circle><path d="M88.7182 38.4685L67.0885 26.3338C60.7395 22.7719 52.8032 27.223 52.8032 34.3521V35.597C52.8032 36.7215 53.422 37.7624 54.4227 38.3221L58.5066 40.613C59.7064 41.2877 61.2022 40.4456 61.2022 39.1014V36.005C61.2022 34.4568 62.924 33.4891 64.3014 34.2632L83.0364 44.7765C84.4138 45.5506 84.4138 47.4859 83.0364 48.2547L64.3014 58.768C62.924 59.5421 61.2022 58.5744 61.2022 57.0262V55.3786C61.2022 48.2495 53.2659 43.7931 46.9115 47.3603L25.2818 59.495C18.9328 63.057 18.9328 71.9697 25.2818 75.5316L46.9115 87.6663C53.2605 91.2283 61.2022 86.7771 61.2022 79.648V78.4032C61.2022 77.2786 60.5834 76.243 59.5826 75.6781L55.4988 73.3819C54.299 72.7072 52.8032 73.5493 52.8032 74.8935V77.99C52.8032 79.5382 51.0814 80.5058 49.704 79.7317L30.969 69.2185C29.5916 68.4444 29.5916 66.5091 30.969 65.735L49.704 55.2217C51.0814 54.4476 52.8032 55.4152 52.8032 56.9635V58.6111C52.8032 65.7402 60.7395 70.1966 67.0885 66.6294L88.7182 54.4947C95.0673 50.9432 95.0673 42.0305 88.7182 38.4685Z" fill="black"></path></svg> 